{"title":"Cardinal Burns S01-E03","uid":8753996,"size":280637980,"categoryP":"video","categoryS":"tv_shows","magnet":"?xt=urn:btih:ea758cb502ef39b9c0ea0f52c7c8e6f12db43ad2&amp;dn=Cardinal+Burns+S01-E03&amp;tr=udp%3A%2F%2Ftracker.openbittorrent.com%3A80&amp;tr=udp%3A%2F%2Fopen.demonii.com%3A1337&amp;tr=udp%3A%2F%2Ftracker.coppersurfer.tk%3A6969&amp;tr=udp%3A%2F%2Fexodus.desync.com%3A6969","seeders":1,"leechers":0,"uploader":"Cerebral222","files":-1,"time":1375104824,"description":"A neat comedy from the UK I thought I'd share.\nCaptured with a basic capture card, so it's not HD, but it's not too bad.\n\nInfo:\n &lt;a href=&quot;\nhttp://en.wikipedia.org/wiki/Cardinal_Burns&quot; rel=&quot;nofollow&quot; target=&quot;_NEW&quot;&gt;\nhttp://en.wikipedia.org/wiki/Cardinal_Burns&lt;/a&gt;\n\nScreens:\n &lt;a href=&quot;\nhttp://bayimg.com/MaOAEaaEa&quot; rel=&quot;nofollow&quot; target=&quot;_NEW&quot;&gt;\nhttp://bayimg.com/MaOAEaaEa&lt;/a&gt;\n\n\nVideo\nID                                       : 0\nFormat                                   : MPEG-4 Visual\nFormat profile                           : Simple@L1\nFormat settings, BVOP                    : No\nFormat settings, QPel                    : No\nFormat settings, GMC                     : No warppoints\nFormat settings, Matrix                  : Default (H.263)\nCodec ID                                 : DX50\nCodec ID/Hint                            : DivX 5\nDuration                                 : 23mn 46s\nBit rate                                 : 1 433 Kbps\nWidth                                    : 720 pixels\nHeight                                   : 404 pixels\nDisplay aspect ratio                     : 4:3\nOriginal display aspect ratio            : 4:3\nFrame rate                               : 25.000 fps\nColor space                              : YUV\nChroma subsampling                       : 4:2:0\nBit depth                                : 8 bits\nScan type                                : Progressive\nCompression mode                         : Lossy\nBits/(Pixel*Frame)                       : 0.197\nStream size                              : 244 MiB (91%)\nWriting library                          : Lavc53.60.100\n\nAudio\nID                                       : 1\nFormat                                   : MPEG Audio\nFormat version                           : Version 1\nFormat profile                           : Layer 3\nMode                                     : Joint stereo\nMode extension                           : MS Stereo\nCodec ID                                 : 55\nCodec ID/Hint                            : MP3\nDuration                                 : 23mn 46s\nBit rate mode                            : Constant\nBit rate                                 : 128 Kbps\nChannel(s)                               : 2 channels\nSampling rate                            : 48.0 KHz\nCompression mode                         : Lossy\nStream size                              : 21.8 MiB (8%)\nAlignment                                : Aligned on interleaves\nInterleave, duration                     : 24 ms (0.60 video frame)\nWriting library                          : LAME3.98.4","torrent":{"xt":"urn:btih:ea758cb502ef39b9c0ea0f52c7c8e6f12db43ad2","amp;dn":"Cardinal+Burns+S01-E03","amp;tr":["udp%3A%2F%2Ftracker.openbittorrent.com%3A80","udp%3A%2F%2Fopen.demonii.com%3A1337","udp%3A%2F%2Ftracker.coppersurfer.tk%3A6969","udp%3A%2F%2Fexodus.desync.com%3A6969"],"infoHash":"ea758cb502ef39b9c0ea0f52c7c8e6f12db43ad2","infoHashBuffer":{"type":"Buffer","data":[234,117,140,181,2,239,57,185,192,234,15,82,199,200,230,241,45,180,58,210]},"announce":[],"urlList":[]}}